<?xml version="1.0" standalone="no"?>
<!DOCTYPE svg PUBLIC "-//W3C//DTD SVG 20010904//EN"
 "http://www.w3.org/TR/2001/REC-SVG-20010904/DTD/svg10.dtd">
<svg version="1.0" xmlns="http://www.w3.org/2000/svg"
 width="270.000000pt" height="270.000000pt" viewBox="0 0 270.000000 270.000000"
 preserveAspectRatio="xMidYMid meet">
<metadata>
Created by potrace 1.14, written by Peter Selinger 2001-2017
</metadata>
<g transform="translate(0.000000,270.000000) scale(0.100000,-0.100000)"
fill="#000000" stroke="none">
<path d="M1905 2365 c-120 -33 -225 -80 -272 -122 -17 -16 -42 -37 -55 -48
-98 -81 -185 -261 -197 -406 -1 -15 -43 -17 -457 -17 -391 -1 -464 -4 -513
-18 -249 -72 -367 -349 -245 -573 52 -96 140 -167 299 -241 229 -107 236 -111
252 -146 14 -29 14 -37 2 -70 -41 -107 -243 -106 -435 1 -35 20 -66 40 -69 45
-3 6 -10 10 -14 10 -10 0 -191 -236 -191 -249 0 -13 131 -94 212 -130 134 -61
328 -91 443 -69 129 25 251 101 310 193 37 57 42 70 62 145 10 39 9 136 -2
185 -17 72 -60 149 -106 188 -68 57 -83 68 -154 101 -38 19 -118 57 -176 85
-116 55 -171 103 -164 143 7 37 27 67 49 75 22 7 848 12 878 5 16 -4 18 -37
18 -476 -1 -259 0 -512 0 -561 l0 -91 160 0 160 1 0 335 c0 184 0 439 0 565
l0 230 182 0 183 0 1 158 0 157 -184 0 -184 0 6 28 c13 52 56 128 94 166 21
21 65 50 98 63 51 22 75 26 184 27 l125 2 3 157 3 158 -148 -2 c-82 -1 -152
-3 -158 -4z"/>
<path d="M2405 640 l-30 -5 1 -140 c1 -77 2 -147 3 -156 1 -13 23 -15 161 -15
l160 1 0 157 0 157 -132 3 c-73 2 -146 1 -163 -2z"/>
</g>
</svg>
